<?xml version="1.0" encoding="utf-8"?>
<!DOCTYPE svg PUBLIC "-//W3C//DTD SVG 1.1//EN" "http://www.w3.org/Graphics/SVG/1.1/DTD/svg11.dtd">
<svg style="position: absolute; width: 0; height: 0;" width="0" height="0" version="1.1" xmlns="http://www.w3.org/2000/svg" xmlns:xlink="http://www.w3.org/1999/xlink">
	<defs>
        <symbol id="arrowUp" xmlns="http://www.w3.org/2000/svg"><path d="m24.84 16.347 2.36-2.374L14 .787.8 13.987l2.36 2.36L14 5.507l10.84 10.84Z" fill="#fff"/></symbol>
        <symbol id="arrowDown" xmlns="http://www.w3.org/2000/svg"><path d="M3.16.653.8 3.027 14 16.213l13.2-13.2-2.36-2.36L14 11.493 3.16.653Z"/></symbol>
        <symbol id="star" xmlns="http://www.w3.org/2000/svg"><path d="M18.645 12 15 0l-3.645 12H0l9.27 6.615L5.745 30 15 22.965 24.27 30l-3.525-11.385L30 12H18.645Z"/></symbol>
        <symbol id="logo" xmlns="http://www.w3.org/2000/svg"><path d="M20.075 34.648 8.84 46.136v16.12H0V0h8.84v34.834L42.36 0h10.13L26.151 27.978 54.33 62.256H44.017L20.073 34.648ZM118.789 57.254l3.5-6.67c4.051 2.778 10.313 4.817 16.391 4.817 7.919 0 11.05-2.41 11.05-6.485 0-10.562-29.652-1.483-29.652-20.197 0-8.523 7.551-14.081 19.522-14.081 6.078 0 13.076 1.667 17.128 4.261l-3.683 6.67c-4.236-2.779-8.84-3.705-13.445-3.705-7.366 0-11.05 2.78-11.05 6.485 0 11.117 29.652 2.038 29.652 20.381 0 8.524-7.736 13.897-20.259 13.897-7.551.185-15.286-2.224-19.154-5.373ZM210.322 33.722v28.534h-8.104v-6.3c-2.762 4.262-8.103 6.67-15.47 6.67-10.682 0-17.312-5.743-17.312-13.896 0-7.596 4.788-13.71 18.785-13.71h13.445v-1.668c0-7.227-4.236-11.303-12.524-11.303-5.525 0-11.234 2.038-14.918 5.003l-3.499-6.485c4.789-3.891 11.787-6.115 19.338-6.115 13.076.186 20.259 6.485 20.259 19.27Zm-8.472 14.082v-6.67h-13.076c-8.472 0-10.866 3.335-10.866 7.226 0 4.632 3.867 7.596 10.313 7.596 6.446.186 11.603-2.594 13.629-8.152ZM91.532 49.842v12.6l5.341-3.15v-12.6l-5.34 3.15Z"/><path d="M106.266 34.463 84.35 21.68l-12.155-7.041-11.972 20.937.185 19.64L82.14 68l2.21-1.297V48.174l9.76-17.231 9.946 5.744v18.528l2.21-1.297V34.463Z" /></symbol>
    </defs>
</svg>
